<svg width="111" height="141" viewBox="0 0 111 141" fill="none" xmlns="http://www.w3.org/2000/svg">
<path fill-rule="evenodd" clip-rule="evenodd" d="M55.1625 8.18583L53.5657 20.9598C50.4352 46.0023 31.2103 66.003 6.31527 70.124C31.2103 74.2451 50.4352 94.2458 53.5657 119.288L55.1625 132.062L56.7594 119.288C59.8899 94.2458 79.1148 74.2451 104.01 70.124C79.1148 66.003 59.8899 46.0023 56.7594 20.9598L55.1625 8.18583ZM51.5811 20.7117L54.1702 0L56.1548 6.70552e-08L58.7439 20.7117C61.7664 44.8902 80.3375 64.1979 104.38 68.1581L110.325 69.1373L110.325 71.1107L104.38 72.09C80.3375 76.0502 61.7664 95.3579 58.7439 119.536L56.1548 140.248H54.1702L51.5811 119.536C48.5587 95.3579 29.9876 76.0502 5.94482 72.0899L1.11759e-06 71.1107L0 69.1373L5.94483 68.1581C29.9876 64.1979 48.5586 44.8902 51.5811 20.7117Z" fill="white"/>
</svg>
