<svg width="151" height="149" viewBox="0 0 151 149" fill="none" xmlns="http://www.w3.org/2000/svg">
<path fill-rule="evenodd" clip-rule="evenodd" d="M75.0365 27.0373L74.7675 34.2949C73.9722 55.7546 56.7532 72.9647 35.2932 73.7491L27.4148 74.037L35.2932 74.325C56.7532 75.1094 73.9722 92.3195 74.7675 113.779L75.0365 121.037L75.3055 113.779C76.1008 92.3195 93.3198 75.1094 114.78 74.325L122.658 74.037L114.78 73.7491C93.3198 72.9647 76.1008 55.7545 75.3055 34.2949L75.0365 27.0373ZM74.0372 7.45058e-09L76.0358 0L77.3041 34.2209C78.0607 54.6337 94.4397 71.0043 114.853 71.7504L150.073 73.0377V75.0364L114.853 76.3237C94.4397 77.0698 78.0607 93.4404 77.3041 113.853L76.0358 148.074H74.0372L72.7689 113.853C72.0124 93.4404 55.6334 77.0698 35.2202 76.3237L1.11759e-08 75.0364L0 73.0377L35.2202 71.7504C55.6333 71.0043 72.0124 54.6337 72.7689 34.2209L74.0372 7.45058e-09Z" fill="white"/>
</svg>
