<svg width="112" height="112" viewBox="0 0 112 112" fill="none" xmlns="http://www.w3.org/2000/svg">
<path fill-rule="evenodd" clip-rule="evenodd" d="M55.9999 7.15293L53.8707 20.0795C51.0142 37.4218 37.4217 51.0143 20.0794 53.8708L7.15281 56L20.0794 58.1293C37.4217 60.9858 51.0142 74.5783 53.8707 91.9206L55.9999 104.847L58.1291 91.9206C60.9857 74.5783 74.5781 60.9858 91.9205 58.1293L104.847 56L91.9205 53.8708C74.5781 51.0143 60.9857 37.4218 58.1291 20.0795L55.9999 7.15293ZM51.8973 19.7545L55.0132 0.837524L56.9866 0.837524L60.1026 19.7545C62.8198 36.2508 75.7492 49.1802 92.2455 51.8974L111.162 55.0133V56.9868L92.2455 60.1027C75.7492 62.8199 62.8198 75.7493 60.1026 92.2456L56.9866 111.163H55.0132L51.8973 92.2456C49.1801 75.7493 36.2507 62.8199 19.7543 60.1027L0.837402 56.9868L0.837402 55.0133L19.7544 51.8974C36.2507 49.1802 49.1801 36.2508 51.8973 19.7545Z" fill="white"/>
</svg>
